<?xml version="1.0" encoding="utf-8"?>
<!-- Generator: Adobe Illustrator 27.0.1, SVG Export Plug-In . SVG Version: 6.00 Build 0)  -->
<svg version="1.1" id="Layer_2_00000095300621898838318240000005925781473325040528_"
	 xmlns="http://www.w3.org/2000/svg" xmlns:xlink="http://www.w3.org/1999/xlink" x="0px" y="0px" viewBox="0 0 1034.9 600.3"
	 style="enable-background:new 0 0 1034.9 600.3;" xml:space="preserve">
<style type="text/css">
	.st0{fill:#4E4D68;stroke:#000000;stroke-width:7;stroke-miterlimit:10;}
	.st1{fill:#49E2EA;}
	.st2{fill:#FF9700;}
	.st3{fill:#21B4BF;}
	.st4{fill:#1FC1C4;}
	.st5{fill:#068993;}
	.st6{fill:#6A6883;stroke:#000000;stroke-width:7;stroke-miterlimit:10;}
	.st7{fill:none;stroke:#000000;stroke-width:9;stroke-miterlimit:10;}
	.st8{enable-background:new    ;}
	.st9{fill:#FFFFFF;}
	.st10{fill:#F77125;}
	.st11{fill:#169B9B;}
	.st12{fill:#9696A8;}
	.st13{fill:#6A6883;}
	.st14{fill:#342D46;}
	.st15{fill:#252133;}
</style>
<g id="Layer_1-2">
	<g>
		<g>
			<rect x="354.6" y="3.5" class="st0" width="580.2" height="454.6"/>
			<g>
				<rect x="397.3" y="51.1" class="st1" width="6.6" height="6.6"/>
				<rect x="450.3" y="64.3" class="st1" width="6.6" height="6.6"/>
				<rect x="536.4" y="64.3" class="st1" width="6.6" height="6.6"/>
				<rect x="410.6" y="84.2" class="st1" width="6.6" height="6.6"/>
				<rect x="562.9" y="90.8" class="st1" width="6.6" height="6.6"/>
				<rect x="602.6" y="117.3" class="st1" width="6.6" height="6.6"/>
				<polygon class="st2" points="523.2,97.4 523.2,90.8 516.5,90.8 516.5,84.2 509.9,84.2 509.9,77.6 503.3,77.6 496.7,77.6 
					490,77.6 483.4,77.6 476.8,77.6 470.2,77.6 463.5,77.6 463.5,84.2 456.9,84.2 456.9,90.8 450.3,90.8 450.3,97.4 443.7,97.4 
					443.7,104 443.7,110.7 443.7,117.3 443.7,123.9 443.7,130.5 443.7,137.2 450.3,137.2 450.3,143.8 456.9,143.8 456.9,150.4 
					463.5,150.4 463.5,157 470.2,157 476.8,157 483.4,157 490,157 496.7,157 503.3,157 509.9,157 509.9,150.4 516.5,150.4 
					516.5,143.8 523.2,143.8 523.2,137.2 529.8,137.2 529.8,130.5 529.8,123.9 529.8,117.3 529.8,110.7 529.8,104 529.8,97.4 				
					"/>
				<rect x="384.1" y="236.5" class="st1" width="6.6" height="6.6"/>
				<rect x="410.6" y="236.5" class="st1" width="6.6" height="6.6"/>
				<rect x="437.1" y="236.5" class="st1" width="6.6" height="6.6"/>
				<rect x="463.5" y="236.5" class="st1" width="6.6" height="6.6"/>
				<rect x="490" y="236.5" class="st1" width="6.6" height="6.6"/>
				<rect x="516.5" y="236.5" class="st1" width="6.6" height="6.6"/>
				<rect x="543" y="236.5" class="st1" width="6.6" height="6.6"/>
				<rect x="569.5" y="236.5" class="st1" width="6.6" height="6.6"/>
				<rect x="596" y="236.5" class="st1" width="6.6" height="6.6"/>
				<rect x="622.5" y="236.5" class="st1" width="6.6" height="6.6"/>
				<rect x="649" y="236.5" class="st1" width="6.6" height="6.6"/>
				<rect x="675.5" y="236.5" class="st1" width="6.6" height="6.6"/>
				<rect x="702" y="236.5" class="st1" width="6.6" height="6.6"/>
				<rect x="728.5" y="236.5" class="st1" width="6.6" height="6.6"/>
				<rect x="755" y="236.5" class="st1" width="6.6" height="6.6"/>
				<rect x="781.4" y="236.5" class="st1" width="6.6" height="6.6"/>
				<rect x="807.9" y="236.5" class="st1" width="6.6" height="6.6"/>
				<rect x="834.4" y="236.5" class="st1" width="6.6" height="6.6"/>
				<rect x="860.9" y="236.5" class="st1" width="6.6" height="6.6"/>
				<rect x="887.4" y="236.5" class="st1" width="6.6" height="6.6"/>
				<rect x="423.8" y="249.7" class="st1" width="6.6" height="6.6"/>
				<rect x="476.8" y="249.7" class="st1" width="6.6" height="6.6"/>
				<rect x="529.8" y="249.7" class="st1" width="6.6" height="6.6"/>
				<rect x="582.8" y="249.7" class="st1" width="6.6" height="6.6"/>
				<rect x="635.7" y="249.7" class="st1" width="6.6" height="6.6"/>
				<rect x="688.7" y="249.7" class="st1" width="6.6" height="6.6"/>
				<rect x="741.7" y="249.7" class="st1" width="6.6" height="6.6"/>
				<rect x="794.7" y="249.7" class="st1" width="6.6" height="6.6"/>
				<rect x="847.7" y="249.7" class="st1" width="6.6" height="6.6"/>
				<rect x="900.7" y="249.7" class="st1" width="6.6" height="6.6"/>
				<rect x="384.1" y="263" class="st1" width="6.6" height="6.6"/>
				<rect x="410.6" y="263" class="st1" width="6.6" height="6.6"/>
				<rect x="423.8" y="263" class="st1" width="6.6" height="6.6"/>
				<rect x="437.1" y="263" class="st1" width="6.6" height="6.6"/>
				<rect x="463.5" y="263" class="st1" width="6.6" height="6.6"/>
				<rect x="476.8" y="263" class="st1" width="6.6" height="6.6"/>
				<rect x="490" y="263" class="st1" width="6.6" height="6.6"/>
				<rect x="516.5" y="263" class="st1" width="6.6" height="6.6"/>
				<rect x="529.8" y="263" class="st1" width="6.6" height="6.6"/>
				<rect x="543" y="263" class="st1" width="6.6" height="6.6"/>
				<rect x="569.5" y="263" class="st1" width="6.6" height="6.6"/>
				<rect x="622.5" y="263" class="st1" width="6.6" height="6.6"/>
				<rect x="635.7" y="263" class="st1" width="6.6" height="6.6"/>
				<rect x="649" y="263" class="st1" width="6.6" height="6.6"/>
				<rect x="675.5" y="263" class="st1" width="6.6" height="6.6"/>
				<rect x="688.7" y="263" class="st1" width="6.6" height="6.6"/>
				<rect x="702" y="263" class="st1" width="6.6" height="6.6"/>
				<rect x="728.5" y="263" class="st1" width="6.6" height="6.6"/>
				<rect x="741.7" y="263" class="st1" width="6.6" height="6.6"/>
				<rect x="755" y="263" class="st1" width="6.6" height="6.6"/>
				<rect x="781.4" y="263" class="st1" width="6.6" height="6.6"/>
				<rect x="794.7" y="263" class="st1" width="6.6" height="6.6"/>
				<rect x="807.9" y="263" class="st1" width="6.6" height="6.6"/>
				<rect x="834.4" y="263" class="st1" width="6.6" height="6.6"/>
				<rect x="847.7" y="263" class="st1" width="6.6" height="6.6"/>
				<rect x="860.9" y="263" class="st1" width="6.6" height="6.6"/>
				<rect x="887.4" y="263" class="st1" width="6.6" height="6.6"/>
				<rect x="900.7" y="263" class="st1" width="6.6" height="6.6"/>
				<rect x="397.3" y="276.2" class="st1" width="6.6" height="6.6"/>
				<rect x="423.8" y="276.2" class="st1" width="6.6" height="6.6"/>
				<rect x="450.3" y="276.2" class="st1" width="6.6" height="6.6"/>
				<rect x="476.8" y="276.2" class="st1" width="6.6" height="6.6"/>
				<rect x="503.3" y="276.2" class="st1" width="6.6" height="6.6"/>
				<rect x="529.8" y="276.2" class="st1" width="6.6" height="6.6"/>
				<rect x="556.3" y="276.2" class="st1" width="6.6" height="6.6"/>
				<rect x="635.7" y="276.2" class="st1" width="6.6" height="6.6"/>
				<rect x="662.2" y="276.2" class="st1" width="6.6" height="6.6"/>
				<rect x="688.7" y="276.2" class="st1" width="6.6" height="6.6"/>
				<rect x="715.2" y="276.2" class="st1" width="6.6" height="6.6"/>
				<rect x="741.7" y="276.2" class="st1" width="6.6" height="6.6"/>
				<rect x="768.2" y="276.2" class="st1" width="6.6" height="6.6"/>
				<rect x="794.7" y="276.2" class="st1" width="6.6" height="6.6"/>
				<rect x="821.2" y="276.2" class="st1" width="6.6" height="6.6"/>
				<rect x="847.7" y="276.2" class="st1" width="6.6" height="6.6"/>
				<rect x="874.2" y="276.2" class="st1" width="6.6" height="6.6"/>
				<rect x="900.7" y="276.2" class="st1" width="6.6" height="6.6"/>
				<rect x="384.1" y="289.5" class="st1" width="6.6" height="6.6"/>
				<rect x="397.3" y="289.5" class="st1" width="6.6" height="6.6"/>
				<rect x="410.6" y="289.5" class="st1" width="6.6" height="6.6"/>
				<rect x="423.8" y="289.5" class="st1" width="6.6" height="6.6"/>
				<rect x="437.1" y="289.5" class="st1" width="6.6" height="6.6"/>
				<rect x="450.3" y="289.5" class="st1" width="6.6" height="6.6"/>
				<rect x="463.5" y="289.5" class="st1" width="6.6" height="6.6"/>
				<rect x="476.8" y="289.5" class="st1" width="6.6" height="6.6"/>
				<rect x="490" y="289.5" class="st1" width="6.6" height="6.6"/>
				<rect x="503.3" y="289.5" class="st1" width="6.6" height="6.6"/>
				<rect x="516.5" y="289.5" class="st1" width="6.6" height="6.6"/>
				<rect x="529.8" y="289.5" class="st1" width="6.6" height="6.6"/>
				<rect x="543" y="289.5" class="st1" width="6.6" height="6.6"/>
				<rect x="556.3" y="289.5" class="st1" width="6.6" height="6.6"/>
				<rect x="635.7" y="289.5" class="st1" width="6.6" height="6.6"/>
				<rect x="649" y="289.5" class="st1" width="6.6" height="6.6"/>
				<rect x="662.2" y="289.5" class="st1" width="6.6" height="6.6"/>
				<rect x="675.5" y="289.5" class="st1" width="6.6" height="6.6"/>
				<rect x="688.7" y="289.5" class="st1" width="6.6" height="6.6"/>
				<rect x="702" y="289.5" class="st1" width="6.6" height="6.6"/>
				<rect x="715.2" y="289.5" class="st1" width="6.6" height="6.6"/>
				<rect x="728.5" y="289.5" class="st1" width="6.6" height="6.6"/>
				<rect x="741.7" y="289.5" class="st1" width="6.6" height="6.6"/>
				<rect x="755" y="289.5" class="st1" width="6.6" height="6.6"/>
				<rect x="768.2" y="289.5" class="st1" width="6.6" height="6.6"/>
				<rect x="781.4" y="289.5" class="st1" width="6.6" height="6.6"/>
				<rect x="794.7" y="289.5" class="st1" width="6.6" height="6.6"/>
				<rect x="807.9" y="289.5" class="st1" width="6.6" height="6.6"/>
				<rect x="821.2" y="289.5" class="st1" width="6.6" height="6.6"/>
				<rect x="834.4" y="289.5" class="st1" width="6.6" height="6.6"/>
				<rect x="847.7" y="289.5" class="st1" width="6.6" height="6.6"/>
				<rect x="860.9" y="289.5" class="st1" width="6.6" height="6.6"/>
				<rect x="874.2" y="289.5" class="st1" width="6.6" height="6.6"/>
				<rect x="887.4" y="289.5" class="st1" width="6.6" height="6.6"/>
				<rect x="900.7" y="289.5" class="st1" width="6.6" height="6.6"/>
				<rect x="423.8" y="302.7" class="st1" width="6.6" height="6.6"/>
				<rect x="437.1" y="302.7" class="st1" width="6.6" height="6.6"/>
				<rect x="450.3" y="302.7" class="st1" width="6.6" height="6.6"/>
				<rect x="463.5" y="302.7" class="st1" width="6.6" height="6.6"/>
				<rect x="476.8" y="302.7" class="st1" width="6.6" height="6.6"/>
				<rect x="503.3" y="302.7" class="st1" width="6.6" height="6.6"/>
				<rect x="516.5" y="302.7" class="st1" width="6.6" height="6.6"/>
				<rect x="529.8" y="302.7" class="st1" width="6.6" height="6.6"/>
				<rect x="543" y="302.7" class="st1" width="6.6" height="6.6"/>
				<rect x="556.3" y="302.7" class="st1" width="6.6" height="6.6"/>
				<rect x="635.7" y="302.7" class="st1" width="6.6" height="6.6"/>
				<rect x="649" y="302.7" class="st1" width="6.6" height="6.6"/>
				<rect x="662.2" y="302.7" class="st1" width="6.6" height="6.6"/>
				<rect x="675.5" y="302.7" class="st1" width="6.6" height="6.6"/>
				<rect x="688.7" y="302.7" class="st1" width="6.6" height="6.6"/>
				<rect x="702" y="302.7" class="st1" width="6.6" height="6.6"/>
				<rect x="715.2" y="302.7" class="st1" width="6.6" height="6.6"/>
				<rect x="728.5" y="302.7" class="st1" width="6.6" height="6.6"/>
				<rect x="741.7" y="302.7" class="st1" width="6.6" height="6.6"/>
				<rect x="755" y="302.7" class="st1" width="6.6" height="6.6"/>
				<rect x="781.4" y="302.7" class="st1" width="6.6" height="6.6"/>
				<rect x="794.7" y="302.7" class="st1" width="6.6" height="6.6"/>
				<rect x="807.9" y="302.7" class="st1" width="6.6" height="6.6"/>
				<rect x="821.2" y="302.7" class="st1" width="6.6" height="6.6"/>
				<rect x="834.4" y="302.7" class="st1" width="6.6" height="6.6"/>
				<rect x="847.7" y="302.7" class="st1" width="6.6" height="6.6"/>
				<rect x="860.9" y="302.7" class="st1" width="6.6" height="6.6"/>
				<rect x="874.2" y="302.7" class="st1" width="6.6" height="6.6"/>
				<rect x="887.4" y="302.7" class="st1" width="6.6" height="6.6"/>
				<rect x="437.1" y="316" class="st1" width="6.6" height="6.6"/>
				<rect x="450.3" y="316" class="st1" width="6.6" height="6.6"/>
				<rect x="463.5" y="316" class="st1" width="6.6" height="6.6"/>
				<rect x="503.3" y="316" class="st1" width="6.6" height="6.6"/>
				<rect x="516.5" y="316" class="st1" width="6.6" height="6.6"/>
				<rect x="529.8" y="316" class="st1" width="6.6" height="6.6"/>
				<rect x="543" y="316" class="st1" width="6.6" height="6.6"/>
				<rect x="556.3" y="316" class="st1" width="6.6" height="6.6"/>
				<rect x="635.7" y="316" class="st1" width="6.6" height="6.6"/>
				<rect x="649" y="316" class="st1" width="6.6" height="6.6"/>
				<rect x="662.2" y="316" class="st1" width="6.6" height="6.6"/>
				<rect x="675.5" y="316" class="st1" width="6.6" height="6.6"/>
				<rect x="688.7" y="316" class="st1" width="6.6" height="6.6"/>
				<rect x="702" y="316" class="st1" width="6.6" height="6.6"/>
				<rect x="715.2" y="316" class="st1" width="6.6" height="6.6"/>
				<rect x="728.5" y="316" class="st1" width="6.6" height="6.6"/>
				<rect x="741.7" y="316" class="st1" width="6.6" height="6.6"/>
				<rect x="755" y="316" class="st1" width="6.6" height="6.6"/>
				<rect x="781.4" y="316" class="st1" width="6.6" height="6.6"/>
				<rect x="794.7" y="316" class="st1" width="6.6" height="6.6"/>
				<rect x="807.9" y="316" class="st1" width="6.6" height="6.6"/>
				<rect x="821.2" y="316" class="st1" width="6.6" height="6.6"/>
				<rect x="834.4" y="316" class="st1" width="6.6" height="6.6"/>
				<rect x="847.7" y="316" class="st1" width="6.6" height="6.6"/>
				<rect x="437.1" y="329.2" class="st1" width="6.6" height="6.6"/>
				<rect x="450.3" y="329.2" class="st1" width="6.6" height="6.6"/>
				<rect x="529.8" y="329.2" class="st1" width="6.6" height="6.6"/>
				<rect x="543" y="329.2" class="st1" width="6.6" height="6.6"/>
				<rect x="556.3" y="329.2" class="st1" width="6.6" height="6.6"/>
				<rect x="635.7" y="329.2" class="st1" width="6.6" height="6.6"/>
				<rect x="649" y="329.2" class="st1" width="6.6" height="6.6"/>
				<rect x="662.2" y="329.2" class="st1" width="6.6" height="6.6"/>
				<rect x="675.5" y="329.2" class="st1" width="6.6" height="6.6"/>
				<rect x="688.7" y="329.2" class="st1" width="6.6" height="6.6"/>
				<rect x="807.9" y="329.2" class="st1" width="6.6" height="6.6"/>
				<rect x="821.2" y="329.2" class="st1" width="6.6" height="6.6"/>
				<rect x="834.4" y="329.2" class="st1" width="6.6" height="6.6"/>
				<rect x="443.7" y="335.8" class="st1" width="6.6" height="6.6"/>
				<rect x="523.2" y="335.8" class="st1" width="6.6" height="6.6"/>
				<rect x="549.6" y="335.8" class="st1" width="6.6" height="6.6"/>
				<rect x="655.6" y="335.8" class="st1" width="6.6" height="6.6"/>
				<rect x="682.1" y="335.8" class="st1" width="6.6" height="6.6"/>
				<rect x="814.5" y="335.8" class="st1" width="6.6" height="6.6"/>
				<rect x="841" y="335.8" class="st1" width="6.6" height="6.6"/>
				<rect x="437.1" y="342.5" class="st1" width="6.6" height="6.6"/>
				<rect x="450.3" y="342.5" class="st1" width="6.6" height="6.6"/>
				<rect x="476.8" y="342.5" class="st3" width="6.6" height="6.6"/>
				<rect x="490" y="342.5" class="st3" width="6.6" height="6.6"/>
				<rect x="503.3" y="342.5" class="st3" width="6.6" height="6.6"/>
				<rect x="529.8" y="342.5" class="st1" width="6.6" height="6.6"/>
				<rect x="543" y="342.5" class="st1" width="6.6" height="6.6"/>
				<rect x="556.3" y="342.5" class="st1" width="6.6" height="6.6"/>
				<rect x="635.7" y="342.5" class="st1" width="6.6" height="6.6"/>
				<rect x="649" y="342.5" class="st1" width="6.6" height="6.6"/>
				<rect x="662.2" y="342.5" class="st1" width="6.6" height="6.6"/>
				<rect x="675.5" y="342.5" class="st1" width="6.6" height="6.6"/>
				<rect x="688.7" y="342.5" class="st1" width="6.6" height="6.6"/>
				<rect x="715.2" y="342.5" class="st3" width="6.6" height="6.6"/>
				<rect x="728.5" y="342.5" class="st3" width="6.6" height="6.6"/>
				<rect x="741.7" y="342.5" class="st3" width="6.6" height="6.6"/>
				<rect x="755" y="342.5" class="st3" width="6.6" height="6.6"/>
				<rect x="768.2" y="342.5" class="st3" width="6.6" height="6.6"/>
				<rect x="781.4" y="342.5" class="st3" width="6.6" height="6.6"/>
				<rect x="807.9" y="342.5" class="st1" width="6.6" height="6.6"/>
				<rect x="821.2" y="342.5" class="st1" width="6.6" height="6.6"/>
				<rect x="834.4" y="342.5" class="st1" width="6.6" height="6.6"/>
				<rect x="430.4" y="349.1" class="st1" width="6.6" height="6.6"/>
				<rect x="456.9" y="349.1" class="st1" width="6.6" height="6.6"/>
				<rect x="536.4" y="349.1" class="st1" width="6.6" height="6.6"/>
				<rect x="562.9" y="349.1" class="st1" width="6.6" height="6.6"/>
				<rect x="642.4" y="349.1" class="st1" width="6.6" height="6.6"/>
				<rect x="668.8" y="349.1" class="st1" width="6.6" height="6.6"/>
				<rect x="801.3" y="349.1" class="st1" width="6.6" height="6.6"/>
				<rect x="827.8" y="349.1" class="st1" width="6.6" height="6.6"/>
				<rect x="437.1" y="355.7" class="st1" width="6.6" height="6.6"/>
				<rect x="450.3" y="355.7" class="st1" width="6.6" height="6.6"/>
				<rect x="529.8" y="355.7" class="st1" width="6.6" height="6.6"/>
				<rect x="543" y="355.7" class="st1" width="6.6" height="6.6"/>
				<rect x="556.3" y="355.7" class="st1" width="6.6" height="6.6"/>
				<rect x="649" y="355.7" class="st1" width="6.6" height="6.6"/>
				<rect x="662.2" y="355.7" class="st1" width="6.6" height="6.6"/>
				<rect x="675.5" y="355.7" class="st1" width="6.6" height="6.6"/>
				<rect x="688.7" y="355.7" class="st1" width="6.6" height="6.6"/>
				<rect x="807.9" y="355.7" class="st1" width="6.6" height="6.6"/>
				<rect x="821.2" y="355.7" class="st1" width="6.6" height="6.6"/>
				<rect x="834.4" y="355.7" class="st1" width="6.6" height="6.6"/>
				<rect x="430.4" y="362.3" class="st1" width="6.6" height="6.6"/>
				<rect x="443.7" y="362.3" class="st1" width="6.6" height="6.6"/>
				<rect x="523.2" y="362.3" class="st1" width="6.6" height="6.6"/>
				<rect x="536.4" y="362.3" class="st1" width="6.6" height="6.6"/>
				<rect x="549.6" y="362.3" class="st1" width="6.6" height="6.6"/>
				<rect x="642.4" y="362.3" class="st1" width="6.6" height="6.6"/>
				<rect x="655.6" y="362.3" class="st1" width="6.6" height="6.6"/>
				<rect x="682.1" y="362.3" class="st1" width="6.6" height="6.6"/>
				<rect x="801.3" y="362.3" class="st1" width="6.6" height="6.6"/>
				<rect x="814.5" y="362.3" class="st1" width="6.6" height="6.6"/>
				<rect x="841" y="362.3" class="st1" width="6.6" height="6.6"/>
				<rect x="529.8" y="369" class="st1" width="6.6" height="6.6"/>
				<rect x="543" y="369" class="st1" width="6.6" height="6.6"/>
				<rect x="556.3" y="369" class="st1" width="6.6" height="6.6"/>
				<rect x="649" y="369" class="st1" width="6.6" height="6.6"/>
				<rect x="662.2" y="369" class="st1" width="6.6" height="6.6"/>
				<rect x="807.9" y="369" class="st1" width="6.6" height="6.6"/>
				<rect x="821.2" y="369" class="st1" width="6.6" height="6.6"/>
				<rect x="834.4" y="369" class="st1" width="6.6" height="6.6"/>
				<g>
					<path class="st4" d="M907.3,31.2H384.1v205.3h6.6v6.6h-6.6V263h6.6v6.6h-6.6v19.9h6.6v6.6h-6.6v6.6h46.4v46.4h6.6v-6.6h6.6
						v-6.6h-6.6v-6.6h6.6v6.6h6.6v-6.6h6.6v6.6h-6.6v6.6h6.6v6.6h6.6v-19.9h6.6v-6.6h-6.6V316h6.6v6.6h6.6v-19.9h6.6v19.9h6.6v-19.9
						h6.6v19.9h6.6V316h6.6v6.6h6.6V316h6.6v6.6h-6.6v6.6h6.6v6.6h6.6v-6.6h6.6v6.6h-6.6v6.6h6.6v6.6h6.6v-6.6h6.6v-6.6H543v-6.6
						h6.6v6.6h6.6v-6.6h6.6v6.6h-6.6v6.6h6.6v6.6h6.6v-72.9h6.6v-6.6h-6.6V263h6.6v6.6h6.6V263h6.6v-6.6h-6.6v-6.6h19.9V263h6.6
						v-6.6h6.6v6.6h13.2v13.2h13.2v6.6h-6.6v6.6h6.6v6.6h-6.6v6.6h6.6v6.6h-6.6v6.6h6.6v6.6h-6.6v6.6h6.6v6.6h-6.6v6.6h6.6v6.6h6.6
						v-6.6h6.6v-6.6h-6.6v-6.6h6.6v6.6h6.6v-6.6h6.6v6.6h-6.6v6.6h6.6v6.6h6.6v-6.6h6.6v-6.6h-6.6v-6.6h6.6v6.6h6.6v-6.6h13.2v-13.2
						h6.6v6.6h6.6v-6.6h6.6v-6.6h-6.6v-6.6h6.6v6.6h6.6v-6.6h6.6v6.6h-6.6v6.6h19.9v6.6h6.6v-6.6h6.6v6.6h6.6v-33.1h6.6v33.1h6.6
						v-6.6h6.6v6.6h6.6v-6.6h6.6v6.6h-6.6v6.6h6.6v19.9h6.6v-6.6h6.6v-6.6h-6.6v-6.6h6.6v6.6h6.6v-6.6h6.6v6.6h-6.6v6.6h6.6v6.6h6.6
						v-6.6h6.6v-6.6h-6.6v-6.6h6.6v6.6h6.6v-19.9h19.9v-6.6h-6.6v-6.6h6.6v6.6h6.6v-6.6h6.6v-6.6H874v-6.6h6.6v6.6h6.6v-6.6h6.6v6.6
						h-6.6v6.6h6.6v6.6h6.6v-19.9h6.6v19.9h6.6V31.2h-6.6H907.3z M403.9,296.1h-6.6v-6.6h6.6V296.1z M403.9,282.9h-6.6v-6.6h6.6
						V282.9z M403.9,57.7h-6.6v-6.6h6.6V57.7z M417.2,296.1h-6.6v-6.6h6.6V296.1z M417.2,269.6h-6.6V263h6.6V269.6z M417.2,243.1
						h-6.6v-6.6h6.6V243.1z M417.2,90.8h-6.6v-6.6h6.6V90.8z M430.4,296.1h-6.6v-6.6h6.6V296.1z M430.4,282.9h-6.6v-6.6h6.6V282.9z
						 M430.4,269.6h-6.6V263h6.6V269.6z M430.4,256.4h-6.6v-6.6h6.6V256.4z M450.3,64.3h6.6v6.6h-6.6V64.3z M443.7,322.6h-6.6V316
						h6.6V322.6z M443.7,309.3h-6.6v-6.6h6.6V309.3z M443.7,296.1h-6.6v-6.6h6.6V296.1z M443.7,269.6h-6.6V263h6.6V269.6z
						 M443.7,243.1h-6.6v-6.6h6.6V243.1z M456.9,322.6h-6.6v-6.6h6.6V322.6z M456.9,309.3h-6.6v-6.6h6.6V309.3z M456.9,296.1h-6.6
						v-6.6h6.6V296.1z M456.9,282.8h-6.6v-6.6h6.6V282.8z M470.2,309.3h-6.6v-6.6h6.6V309.3z M470.2,296h-6.6v-6.6h6.6V296z
						 M470.2,269.6h-6.6v-6.6h6.6V269.6z M470.2,243.1h-6.6v-6.6h6.6V243.1z M483.4,296h-6.6v-6.6h6.6V296z M483.4,282.8h-6.6v-6.6
						h6.6V282.8z M483.4,269.5h-6.6v-6.6h6.6V269.5z M483.4,256.3h-6.6v-6.6h6.6V256.3z M496.7,296h-6.6v-6.6h6.6V296z M496.7,269.5
						h-6.6v-6.6h6.6V269.5z M496.7,243.1h-6.6v-6.6h6.6V243.1z M509.9,309.3h-6.6v-6.6h6.6V309.3z M509.9,296h-6.6v-6.6h6.6V296z
						 M509.9,282.8h-6.6v-6.6h6.6V282.8z M523.2,309.3h-6.6v-6.6h6.6V309.3z M523.2,296h-6.6v-6.6h6.6V296z M523.2,269.5h-6.6v-6.6
						h6.6V269.5z M523.2,243h-6.6v-6.6h6.6V243z M523.2,137.1v6.6h-6.6v6.6H510v6.6h-46.4v-6.6H457v-6.6h-6.6v-6.6h-6.6V97.3h6.6
						v-6.6h6.6v-6.6h6.6v-6.6H510v6.6h6.6v6.6h6.6v6.6h6.6v39.7H523.2z M536.4,322.5h-6.6v-6.6h6.6V322.5z M536.4,309.3h-6.6v-6.6
						h6.6V309.3z M536.4,296h-6.6v-6.6h6.6V296z M536.4,282.8h-6.6v-6.6h6.6V282.8z M536.4,269.5h-6.6v-6.6h6.6V269.5z M536.4,256.3
						h-6.6v-6.6h6.6V256.3z M536.4,70.8v-6.6h6.6v6.6H536.4z M549.7,322.5h-6.6v-6.6h6.6V322.5z M549.7,309.2h-6.6v-6.6h6.6V309.2z
						 M549.7,296h-6.6v-6.6h6.6V296z M549.7,269.5h-6.6v-6.6h6.6V269.5z M549.7,243h-6.6v-6.6h6.6V243z M562.9,322.5h-6.6v-6.6h6.6
						V322.5z M562.9,309.2h-6.6v-6.6h6.6V309.2z M562.9,296h-6.6v-6.6h6.6V296z M562.9,282.7h-6.6v-6.6h6.6V282.7z M562.9,97.3v-6.6
						h6.6v6.6H562.9z M576.2,243h-6.6v-6.6h6.6V243z M602.7,243h-6.6v-6.6h6.6V243z M609.3,123.8h-6.6v-6.6h6.6V123.8z M629.2,243
						h-6.6v-6.6h6.6V243z M642.4,269.5h-6.6v-6.6h6.6V269.5z M642.4,256.2h-6.6v-6.6h6.6V256.2z M655.7,322.5H649v-6.6h6.6V322.5z
						 M655.7,309.2H649v-6.6h6.6V309.2z M655.7,296H649v-6.6h6.6V296z M655.7,269.5H649v-6.6h6.6V269.5z M655.7,243H649v-6.6h6.6
						V243z M668.9,322.5h-6.6v-6.6h6.6V322.5z M668.9,309.2h-6.6v-6.6h6.6V309.2z M668.9,296h-6.6v-6.6h6.6V296z M668.9,282.7h-6.6
						v-6.6h6.6V282.7z M682.2,322.5h-6.6v-6.6h6.6V322.5z M682.2,309.2h-6.6v-6.6h6.6V309.2z M682.2,296h-6.6v-6.6h6.6V296z
						 M682.2,269.5h-6.6v-6.6h6.6V269.5z M682.2,243h-6.6v-6.6h6.6V243z M695.4,322.4h-6.6v-6.6h6.6V322.4z M695.4,309.2h-6.6v-6.6
						h6.6V309.2z M695.4,295.9h-6.6v-6.6h6.6V295.9z M695.4,282.7h-6.6v-6.6h6.6V282.7z M695.4,269.4h-6.6v-6.6h6.6V269.4z
						 M695.4,256.2h-6.6v-6.6h6.6V256.2z M708.7,309.2H702v-6.6h6.6V309.2z M708.7,295.9H702v-6.6h6.6V295.9z M708.7,269.4H702v-6.6
						h6.6V269.4z M708.7,242.9H702v-6.6h6.6V242.9z M721.9,295.9h-6.6v-6.6h6.6V295.9z M721.9,282.7h-6.6v-6.6h6.6V282.7z
						 M735.2,295.9h-6.6v-6.6h6.6V295.9z M735.2,269.4h-6.6v-6.6h6.6V269.4z M735.2,242.9h-6.6v-6.6h6.6V242.9z M748.4,309.2h-6.6
						v-6.6h6.6V309.2z M748.4,295.9h-6.6v-6.6h6.6V295.9z M748.4,282.7h-6.6v-6.6h6.6V282.7z M748.4,269.4h-6.6v-6.6h6.6V269.4z
						 M748.4,256.2h-6.6v-6.6h6.6V256.2z M761.7,309.2H755v-6.6h6.6V309.2z M761.7,295.9H755v-6.6h6.6V295.9z M761.7,269.4H755v-6.6
						h6.6V269.4z M761.7,242.9H755v-6.6h6.6V242.9z M774.9,282.7h-6.6V276h6.6V282.7z M788.2,309.2h-6.6v-6.6h6.6V309.2z
						 M788.2,295.9h-6.6v-6.6h6.6V295.9z M788.2,269.4h-6.6v-6.6h6.6V269.4z M788.2,242.9h-6.6v-6.6h6.6V242.9z M801.4,309.2h-6.6
						v-6.6h6.6V309.2z M801.4,295.9h-6.6v-6.6h6.6V295.9z M801.4,282.7h-6.6V276h6.6V282.7z M801.4,269.4h-6.6v-6.6h6.6V269.4z
						 M801.4,256.2h-6.6v-6.6h6.6V256.2z M814.7,322.4H808v-6.6h6.6V322.4z M814.7,309.1H808v-6.6h6.6V309.1z M814.7,295.9H808v-6.6
						h6.6V295.9z M814.7,269.4H808v-6.6h6.6V269.4z M814.7,242.9H808v-6.6h6.6V242.9z M827.9,322.4h-6.6v-6.6h6.6V322.4z
						 M827.9,309.1h-6.6v-6.6h6.6V309.1z M827.9,295.9h-6.6v-6.6h6.6V295.9z M827.9,282.6h-6.6V276h6.6V282.6z M841.2,322.4h-6.6
						v-6.6h6.6V322.4z M841.2,309.1h-6.6v-6.6h6.6V309.1z M841.2,295.9h-6.6v-6.6h6.6V295.9z M841.2,269.4h-6.6v-6.6h6.6V269.4z
						 M841.2,242.9h-6.6v-6.6h6.6V242.9z M854.4,309.1h-6.6v-6.6h6.6V309.1z M854.4,295.9h-6.6v-6.6h6.6V295.9z M854.4,282.6h-6.6
						V276h6.6V282.6z M854.4,269.4h-6.6v-6.6h6.6V269.4z M854.4,256.1h-6.6v-6.6h6.6V256.1z M867.7,295.9H861v-6.6h6.6V295.9z
						 M867.7,269.4H861v-6.6h6.6V269.4z M867.7,242.9H861v-6.6h6.6V242.9z M880.9,282.6h-6.6V276h6.6V282.6z M894.2,269.4h-6.6v-6.6
						h6.6V269.4z M894.2,242.9h-6.6v-6.6h6.6V242.9z M907.4,282.6h-6.6V276h6.6V282.6z M907.4,269.4h-6.6v-6.6h6.6V269.4z
						 M907.4,256.1h-6.6v-6.6h6.6V256.1z"/>
					<rect x="688.7" y="335.8" class="st4" width="6.6" height="6.6"/>
					<polygon class="st4" points="450.3,342.5 443.7,342.5 443.7,349.1 437.1,349.1 437.1,355.7 443.7,355.7 443.7,362.3 
						450.3,362.3 450.3,355.7 456.9,355.7 456.9,349.1 450.3,349.1 					"/>
					<polygon class="st4" points="556.3,342.5 549.6,342.5 549.6,349.1 543,349.1 543,355.7 549.6,355.7 549.6,362.3 556.3,362.3 
						556.3,355.7 562.9,355.7 562.9,349.1 556.3,349.1 					"/>
					<polygon class="st4" points="682.1,349.1 675.5,349.1 675.5,355.7 682.1,355.7 682.1,362.3 688.7,362.3 688.7,355.7 
						695.3,355.7 695.3,349.1 688.7,349.1 688.7,342.5 682.1,342.5 					"/>
					<polygon class="st4" points="536.4,355.7 536.4,349.1 529.8,349.1 529.8,342.5 523.2,342.5 523.2,349.1 523.2,355.7 
						523.2,362.3 529.8,362.3 529.8,355.7 					"/>
					<polygon class="st4" points="834.4,349.1 834.4,355.7 841,355.7 841,362.3 847.7,362.3 847.7,355.7 847.7,349.1 847.7,342.5 
						841,342.5 841,349.1 					"/>
					<rect x="430.4" y="355.7" class="st4" width="6.6" height="6.6"/>
					<rect x="536.4" y="355.7" class="st4" width="6.6" height="6.6"/>
					<rect x="642.4" y="355.7" class="st4" width="6.6" height="6.6"/>
					<polygon class="st4" points="655.6,362.3 662.2,362.3 662.2,355.7 668.8,355.7 668.8,349.1 662.2,349.1 662.2,342.5 
						655.6,342.5 655.6,349.1 649,349.1 649,355.7 655.6,355.7 					"/>
					<polygon class="st4" points="675.5,355.7 668.8,355.7 668.8,362.3 662.2,362.3 662.2,369 668.8,369 675.5,369 682.1,369 
						682.1,362.3 675.5,362.3 					"/>
					<rect x="801.3" y="355.7" class="st4" width="6.6" height="6.6"/>
					<polygon class="st4" points="814.5,362.3 821.2,362.3 821.2,355.7 827.8,355.7 827.8,349.1 821.2,349.1 821.2,342.5 
						814.5,342.5 814.5,349.1 807.9,349.1 807.9,355.7 814.5,355.7 					"/>
					<polygon class="st4" points="834.4,355.7 827.8,355.7 827.8,362.3 821.2,362.3 821.2,369 827.8,369 827.8,375.6 834.4,375.6 
						834.4,369 841,369 841,362.3 834.4,362.3 					"/>
					<rect x="437.1" y="362.3" class="st4" width="6.6" height="6.6"/>
					<polygon class="st4" points="450.3,362.3 450.3,369 456.9,369 463.5,369 463.5,362.3 463.5,355.7 456.9,355.7 456.9,362.3 
											"/>
					<rect x="529.8" y="362.3" class="st4" width="6.6" height="6.6"/>
					<rect x="543" y="362.3" class="st4" width="6.6" height="6.6"/>
					<polygon class="st4" points="556.3,362.3 556.3,369 562.9,369 569.5,369 569.5,362.3 569.5,355.7 562.9,355.7 562.9,362.3 
											"/>
					<rect x="649" y="362.3" class="st4" width="6.6" height="6.6"/>
					<rect x="688.7" y="362.3" class="st4" width="6.6" height="6.6"/>
					<rect x="807.9" y="362.3" class="st4" width="6.6" height="6.6"/>
					<rect x="536.4" y="369" class="st4" width="6.6" height="6.6"/>
					<rect x="549.6" y="369" class="st4" width="6.6" height="6.6"/>
					<rect x="642.4" y="369" class="st4" width="6.6" height="6.6"/>
					<rect x="655.6" y="369" class="st4" width="6.6" height="6.6"/>
					<rect x="801.3" y="369" class="st4" width="6.6" height="6.6"/>
					<rect x="814.5" y="369" class="st4" width="6.6" height="6.6"/>
					<rect x="841" y="369" class="st4" width="6.6" height="6.6"/>
				</g>
				<path class="st5" d="M907.3,309.4v-13.2h-6.6v13.2h-13.2v-13.2h-6.6v13.2h-13.2v6.6h-13.2v6.6h-6.6v53h-46.4v-46.4h-6.6v-6.6
					h-19.9v-26.5h-6.6v26.5h-26.5V316h-6.6v6.6h-6.6v-13.2h-6.6v13.2H702v6.6h-6.6V369h-26.5v6.6h-26.5v-26.5h-6.6v-72.9h-6.6v-6.6
					h-6.6V263h-6.6v-6.6h-6.6v6.6h-6.6v-13.2h-13.2V263h-6.6v6.6h-6.6v6.6h-6.6V369h-6.6v6.6h-33.1V369h-6.6v-39.7h-6.6v-6.6h-19.9
					v-19.9h-6.6v19.9h-6.6v-13.2h-6.6v13.2h-6.6v6.6h-6.6V369h-33.1v-59.6h-6.6v-6.6h-39.7v125.8h529.8V309.4H907.3z M476.8,342.5
					h6.6v6.6h-6.6V342.5z M509.9,349.1h-6.6v-6.6h6.6V349.1z M788.1,349.1h-6.6v-6.6h6.6V349.1z M490,342.5h6.6v6.6H490V342.5z
					 M715.2,342.5h6.6v6.6h-6.6V342.5z M774.8,349.1h-6.6v-6.6h6.6V349.1z M761.6,349.1h-6.6v-6.6h6.6V349.1z M748.3,349.1h-6.6
					v-6.6h6.6V349.1z M735.1,349.1h-6.6v-6.6h6.6V349.1z"/>
			</g>
			<path class="st6" d="M328.9,453.6h620.9c0.3,0,0.6,0.3,0.6,0.6v45.7c0,0.3-0.3,0.6-0.6,0.6H328.9c-0.3,0-0.6-0.3-0.6-0.6v-45.7
				C328.3,453.8,328.6,453.6,328.9,453.6z"/>
			<rect x="383.3" y="28.8" class="st7" width="529.8" height="398.6"/>
		</g>
		<g class="st8">
			<path class="st9" d="M176.1,384.8v-25h-12.5v25h-6.2v-31.2h25v31.2H176.1z"/>
			<path class="st9" d="M188.6,384.8v-31.2h25v31.2H188.6z M207.3,359.8h-12.5v18.8h12.5V359.8z"/>
			<path class="st9" d="M251.1,384.8v-25h-12.5v25h-6.2v-31.2h25v31.2H251.1z"/>
			<path class="st9" d="M263.6,384.8v-31.2h25v6.2h-18.8v6.2h12.5v6.2h-12.5v6.2h18.8v6.2H263.6z"/>
			<path class="st9" d="M294.8,353.6h6.2v25h-6.2V353.6z M301.1,384.8v-6.2h6.2v6.2H301.1z M307.3,353.6h6.2v25h-6.2V353.6z
				 M313.6,384.8v-6.2h6.2v6.2H313.6z M319.8,353.6h6.2v25h-6.2V353.6z"/>
		</g>
		<g class="st8">
			<path class="st9" d="M166.7,444.8v-12.5h-12.5v12.5H148v-31.2h25v31.2H166.7z M166.7,419.8h-12.5v6.2h12.5V419.8z"/>
			<path class="st9" d="M179.2,444.8v-31.2h6.2v25h18.8v6.2H179.2z"/>
			<path class="st9" d="M210.5,444.8v-31.2h25v6.2h-18.8v6.2h12.5v6.2h-12.5v6.2h18.8v6.2H210.5z"/>
			<path class="st9" d="M260.5,444.8v-12.5H248v12.5h-6.2v-31.2h25v12.5h-6.2v6.2h6.2v12.5H260.5z M260.5,419.8H248v6.2h12.5V419.8z
				"/>
			<path class="st9" d="M291.7,419.8v25h-6.2v-25H273v-6.2h31.2v6.2H291.7z"/>
			<path class="st9" d="M310.5,444.8v-6.2h18.8v-6.2h-18.8v-18.8h25v6.2h-18.8v6.2h18.8v18.8H310.5z"/>
		</g>
		<polygon class="st10" points="988.3,192.8 988.3,178.9 974.6,178.9 974.6,192.8 961,192.8 961,206.7 974.6,206.7 974.6,220.6 
			988.3,220.6 988.3,206.7 1002,206.7 1002,192.8 		"/>
		<rect x="957.4" y="116.6" class="st5" width="13.7" height="13.9"/>
		<rect x="1002" y="106.7" class="st2" width="13.7" height="13.9"/>
		<rect x="988.3" y="143.1" class="st11" width="13.7" height="13.9"/>
		<rect x="1021.2" y="169.6" class="st4" width="13.7" height="13.9"/>
		<polygon class="st2" points="248.1,149.2 262,149.2 262,135.5 248.1,135.5 248.1,121.8 234.2,121.8 234.2,135.5 220.3,135.5 
			220.3,149.2 234.2,149.2 234.2,162.9 248.1,162.9 		"/>
		<rect x="310.4" y="118.3" class="st10" width="13.9" height="13.7"/>
		<rect x="320.3" y="162.9" class="st2" width="13.9" height="13.7"/>
		<rect x="283.9" y="149.2" class="st4" width="13.9" height="13.7"/>
		<rect x="257.4" y="182.1" class="st11" width="13.9" height="13.7"/>
		<g>
			<path d="M388.3,598.3H60.9v-43.1h101.6v-17.9H0V210h449.3v327.4H266.5v17.9h121.9L388.3,598.3L388.3,598.3z M185.2,575.6h58.5
				v-58.5h-58.5V575.6z M22.8,514.6h17.9v-20.4h385.9V232.7H22.8C22.8,232.7,22.8,514.6,22.8,514.6z"/>
			<rect x="51.4" y="241.2" class="st11" width="366.4" height="268.4"/>
			<g>
				<polygon class="st12" points="377,566.6 255.1,566.6 255.1,546.3 194.2,546.3 194.2,566.6 153.6,566.6 153.6,587 377,587 				
					"/>
				<path class="st12" d="M31.7,221.4V526h406.2V221.4H31.7z M417.6,505.7H52v-264h365.6V505.7z"/>
				<rect x="72.3" y="566.6" class="st13" width="81.2" height="20.3"/>
				<polygon class="st13" points="173.9,526 173.9,566.6 194.2,566.6 194.2,546.3 255.1,546.3 255.1,526 				"/>
				<rect x="11.4" y="221.4" class="st13" width="20.3" height="304.7"/>
			</g>
			<rect x="133.9" y="526.1" width="195.7" height="10.2"/>
			<rect x="67.3" y="258.3" class="st4" width="334.9" height="232.2"/>
		</g>
		<g>
			<rect x="697.2" y="305.6" width="7" height="7"/>
			<rect x="690.2" y="305.6" width="7" height="7"/>
			<rect x="683.2" y="305.6" width="7" height="7"/>
			<rect x="676.2" y="305.6" width="7" height="7"/>
			<rect x="669.2" y="305.6" width="7" height="7"/>
			<rect x="662.2" y="305.6" width="7" height="7"/>
			<rect x="655.2" y="305.6" width="7" height="7"/>
			<rect x="648.1" y="305.6" width="7" height="7"/>
			<rect x="641.1" y="305.6" width="7" height="7"/>
			<rect x="634.1" y="305.6" width="7" height="7"/>
			<rect x="627.1" y="305.6" width="7" height="7"/>
			<rect x="725.3" y="312.6" width="7" height="7"/>
			<rect x="718.3" y="312.6" width="7" height="7"/>
			<rect x="711.3" y="312.6" width="7" height="7"/>
			<rect x="704.3" y="312.6" width="7" height="7"/>
			<rect x="620.1" y="312.6" width="7" height="7"/>
			<rect x="613" y="312.6" width="7" height="7"/>
			<rect x="606" y="312.6" width="7" height="7"/>
			<rect x="599" y="312.6" width="7" height="7"/>
			<rect x="739.4" y="319.6" width="7" height="7"/>
			<rect x="732.3" y="319.6" width="7" height="7"/>
			<rect x="592" y="319.6" width="7" height="7"/>
			<rect x="739.4" y="326.6" width="7" height="7"/>
			<rect x="585" y="326.6" width="7" height="7"/>
			<rect x="739.4" y="333.7" width="7" height="7"/>
			<rect x="585" y="333.7" width="7" height="7"/>
			<rect x="739.4" y="340.7" width="7" height="7"/>
			<rect x="585" y="340.7" width="7" height="7"/>
			<rect x="739.4" y="347.7" width="7" height="7"/>
			<rect x="585" y="347.7" width="7" height="7"/>
			<rect x="739.4" y="354.7" width="7" height="7"/>
			<rect x="585" y="354.7" width="7" height="7"/>
			<rect x="578" y="354.7" width="7" height="7"/>
			<rect x="570.9" y="354.7" width="7" height="7"/>
			<rect x="563.9" y="354.7" width="7" height="7"/>
			<rect x="556.9" y="354.7" width="7" height="7"/>
			<rect x="739.4" y="361.7" width="7" height="7"/>
			<rect x="585" y="361.7" width="7" height="7"/>
			<rect x="549.9" y="361.7" width="7" height="7"/>
			<rect x="739.4" y="368.8" width="7" height="7"/>
			<rect x="585" y="368.8" width="7" height="7"/>
			<rect x="542.9" y="368.8" width="7" height="7"/>
			<rect x="739.4" y="375.8" width="7" height="7"/>
			<rect x="585" y="375.8" width="7" height="7"/>
			<rect x="578" y="375.8" width="7" height="7"/>
			<rect x="570.9" y="375.8" width="7" height="7"/>
			<rect x="563.9" y="375.8" width="7" height="7"/>
			<rect x="535.8" y="375.8" width="7" height="7"/>
			<rect x="739.4" y="382.8" width="7" height="7"/>
			<rect x="585" y="382.8" width="7" height="7"/>
			<rect x="556.9" y="382.8" width="7" height="7"/>
			<rect x="535.8" y="382.8" width="7" height="7"/>
			<rect x="739.4" y="389.8" width="7" height="7"/>
			<rect x="585" y="389.8" width="7" height="7"/>
			<rect x="556.9" y="389.8" width="7" height="7"/>
			<rect x="535.8" y="389.8" width="7" height="7"/>
			<rect x="739.4" y="396.8" width="7" height="7"/>
			<rect x="585" y="396.8" width="7" height="7"/>
			<rect x="556.9" y="396.8" width="7" height="7"/>
			<rect x="535.8" y="396.8" width="7" height="7"/>
			<rect x="739.4" y="403.8" width="7" height="7"/>
			<rect x="585" y="403.8" width="7" height="7"/>
			<rect x="556.9" y="403.8" width="7" height="7"/>
			<rect x="535.8" y="403.8" width="7" height="7"/>
			<rect x="739.4" y="410.9" width="7" height="7"/>
			<rect x="585" y="410.9" width="7" height="7"/>
			<rect x="578" y="410.9" width="7" height="7"/>
			<rect x="570.9" y="410.9" width="7" height="7"/>
			<rect x="563.9" y="410.9" width="7" height="7"/>
			<rect x="535.8" y="410.9" width="7" height="7"/>
			<rect x="739.4" y="417.9" width="7" height="7"/>
			<rect x="585" y="417.9" width="7" height="7"/>
			<rect x="542.9" y="417.9" width="7" height="7"/>
			<rect x="739.4" y="424.9" width="7" height="7"/>
			<rect x="585" y="424.9" width="7" height="7"/>
			<rect x="549.9" y="424.9" width="7" height="7"/>
			<rect x="739.4" y="431.9" width="7" height="7"/>
			<rect x="585" y="431.9" width="7" height="7"/>
			<rect x="578" y="431.9" width="7" height="7"/>
			<rect x="570.9" y="431.9" width="7" height="7"/>
			<rect x="563.9" y="431.9" width="7" height="7"/>
			<rect x="556.9" y="431.9" width="7" height="7"/>
			<rect x="739.4" y="438.9" width="7" height="7"/>
			<rect x="585" y="438.9" width="7" height="7"/>
			<rect x="739.4" y="445.9" width="7" height="7"/>
			<rect x="585" y="445.9" width="7" height="7"/>
			<rect x="739.4" y="453" width="7" height="7"/>
			<rect x="585" y="453" width="7" height="7"/>
			<rect x="739.4" y="460" width="7" height="7"/>
			<rect x="585" y="460" width="7" height="7"/>
			<rect x="739.4" y="467" width="7" height="7"/>
			<g>
				<path class="st14" d="M732.3,347.7v-7h-21v-7h-91.2v7h-21v7h-7v63.2h7v-7h7v7h7v-7h7v7h7v-7h7v7h7v-7h7v7h7v-7h7v7h7v-7h7v7h7
					v-7h7v7h7v-7h7v7h7v-7h7v7h7v-7h7v7h7v-63.2H732.3L732.3,347.7z M718.3,382.8h-7v-7h7V382.8z M613,375.8h7v7h-7V375.8z
					 M627.1,375.8h7v7h-7V375.8z M641.1,375.8h7v7h-7V375.8z M655.2,375.8h7v7h-7V375.8z M669.2,375.8h7v7h-7V375.8z M683.2,375.8h7
					v7h-7V375.8z M697.3,375.8h7v7h-7V375.8z M599,375.8h7v7h-7V375.8z M599,396.8v-7h7v7H599z M613.1,396.8v-7h7v7H613.1z
					 M627.1,396.8v-7h7v7H627.1z M641.1,396.8v-7h7v7H641.1z M655.2,396.8v-7h7v7H655.2z M669.2,396.8v-7h7v7H669.2z M683.3,396.8
					v-7h7v7H683.3z M697.3,396.8v-7h7v7H697.3z M711.3,396.8v-7h7v7H711.3z M732.4,396.8h-7v-7h7V396.8z M732.4,382.8h-7v-7h7V382.8
					z"/>
				<polygon class="st14" points="570.9,361.7 563.9,361.7 556.9,361.7 556.9,368.8 549.9,368.8 549.9,375.8 542.9,375.8 
					542.9,382.8 542.9,389.8 542.9,396.8 542.9,403.8 542.9,410.9 542.9,417.9 549.9,417.9 549.9,424.9 556.9,424.9 556.9,431.9 
					563.9,431.9 570.9,431.9 578,431.9 585,431.9 585,424.9 585,417.9 578,417.9 570.9,417.9 563.9,417.9 563.9,410.9 556.9,410.9 
					556.9,403.8 556.9,396.8 556.9,389.8 556.9,382.8 563.9,382.8 563.9,375.8 570.9,375.8 578,375.8 585,375.8 585,368.8 
					585,361.7 578,361.7 				"/>
				<rect x="725.3" y="410.9" class="st14" width="7" height="7"/>
				<rect x="711.3" y="410.9" class="st14" width="7" height="7"/>
				<rect x="697.2" y="410.9" class="st14" width="7" height="7"/>
				<rect x="683.2" y="410.9" class="st14" width="7" height="7"/>
				<rect x="669.2" y="410.9" class="st14" width="7" height="7"/>
				<rect x="655.2" y="410.9" class="st14" width="7" height="7"/>
				<rect x="641.1" y="410.9" class="st14" width="7" height="7"/>
				<rect x="627.1" y="410.9" class="st14" width="7" height="7"/>
				<rect x="613" y="410.9" class="st14" width="7" height="7"/>
				<rect x="599" y="410.9" class="st14" width="7" height="7"/>
				<rect x="732.3" y="417.9" class="st14" width="7" height="7"/>
				<rect x="718.3" y="417.9" class="st14" width="7" height="7"/>
				<rect x="704.3" y="417.9" class="st14" width="7" height="7"/>
				<rect x="690.2" y="417.9" class="st14" width="7" height="7"/>
				<rect x="676.2" y="417.9" class="st14" width="7" height="7"/>
				<rect x="662.2" y="417.9" class="st14" width="7" height="7"/>
				<rect x="648.1" y="417.9" class="st14" width="7" height="7"/>
				<rect x="634.1" y="417.9" class="st14" width="7" height="7"/>
				<rect x="620.1" y="417.9" class="st14" width="7" height="7"/>
				<rect x="606" y="417.9" class="st14" width="7" height="7"/>
				<rect x="592" y="417.9" class="st14" width="7" height="7"/>
				<rect x="725.3" y="424.9" class="st14" width="7" height="7"/>
				<rect x="711.3" y="424.9" class="st14" width="7" height="7"/>
				<rect x="697.2" y="424.9" class="st14" width="7" height="7"/>
				<rect x="683.2" y="424.9" class="st14" width="7" height="7"/>
				<rect x="669.2" y="424.9" class="st14" width="7" height="7"/>
				<rect x="655.2" y="424.9" class="st14" width="7" height="7"/>
				<rect x="641.1" y="424.9" class="st14" width="7" height="7"/>
				<rect x="627.1" y="424.9" class="st14" width="7" height="7"/>
				<rect x="613" y="424.9" class="st14" width="7" height="7"/>
				<rect x="599" y="424.9" class="st14" width="7" height="7"/>
				<rect x="732.3" y="431.9" class="st14" width="7" height="7"/>
				<rect x="718.3" y="431.9" class="st14" width="7" height="7"/>
				<rect x="704.3" y="431.9" class="st14" width="7" height="7"/>
				<rect x="690.2" y="431.9" class="st14" width="7" height="7"/>
				<rect x="676.2" y="431.9" class="st14" width="7" height="7"/>
				<rect x="662.2" y="431.9" class="st14" width="7" height="7"/>
				<rect x="648.1" y="431.9" class="st14" width="7" height="7"/>
				<rect x="634.1" y="431.9" class="st14" width="7" height="7"/>
				<rect x="620.1" y="431.9" class="st14" width="7" height="7"/>
				<rect x="606" y="431.9" class="st14" width="7" height="7"/>
				<rect x="592" y="431.9" class="st14" width="7" height="7"/>
				<rect x="725.3" y="438.9" class="st14" width="7" height="7"/>
				<rect x="711.3" y="438.9" class="st14" width="7" height="7"/>
				<rect x="697.2" y="438.9" class="st14" width="7" height="7"/>
				<rect x="683.2" y="438.9" class="st14" width="7" height="7"/>
				<rect x="669.2" y="438.9" class="st14" width="7" height="7"/>
				<rect x="655.2" y="438.9" class="st14" width="7" height="7"/>
				<rect x="641.1" y="438.9" class="st14" width="7" height="7"/>
				<rect x="627.1" y="438.9" class="st14" width="7" height="7"/>
				<rect x="613" y="438.9" class="st14" width="7" height="7"/>
				<rect x="599" y="438.9" class="st14" width="7" height="7"/>
				<rect x="725.3" y="453" class="st14" width="7" height="7"/>
				<rect x="711.3" y="453" class="st14" width="7" height="7"/>
				<rect x="697.2" y="453" class="st14" width="7" height="7"/>
				<rect x="683.2" y="453" class="st14" width="7" height="7"/>
				<rect x="669.2" y="453" class="st14" width="7" height="7"/>
				<rect x="655.2" y="453" class="st14" width="7" height="7"/>
				<rect x="641.1" y="453" class="st14" width="7" height="7"/>
				<rect x="627.1" y="453" class="st14" width="7" height="7"/>
				<rect x="613" y="453" class="st14" width="7" height="7"/>
				<rect x="599" y="453" class="st14" width="7" height="7"/>
				<rect x="725.3" y="467" class="st14" width="7" height="7"/>
				<rect x="711.3" y="467" class="st14" width="7" height="7"/>
				<rect x="697.2" y="467" class="st14" width="7" height="7"/>
				<rect x="683.2" y="467" class="st14" width="7" height="7"/>
				<rect x="669.2" y="467" class="st14" width="7" height="7"/>
				<rect x="655.2" y="467" class="st14" width="7" height="7"/>
				<rect x="641.1" y="467" class="st14" width="7" height="7"/>
				<rect x="627.1" y="467" class="st14" width="7" height="7"/>
				<rect x="613" y="467" class="st14" width="7" height="7"/>
				<rect x="599" y="467" class="st14" width="7" height="7"/>
			</g>
			<rect x="585" y="467" width="7" height="7"/>
			<rect x="739.4" y="474" width="7" height="7"/>
			<rect x="585" y="474" width="7" height="7"/>
			<rect x="739.4" y="481" width="7" height="7"/>
			<g>
				<rect x="725.3" y="375.8" class="st15" width="7" height="7"/>
				<rect x="711.3" y="375.8" class="st15" width="7" height="7"/>
				<rect x="697.2" y="375.8" class="st15" width="7" height="7"/>
				<rect x="683.2" y="375.8" class="st15" width="7" height="7"/>
				<rect x="669.2" y="375.8" class="st15" width="7" height="7"/>
				<rect x="655.2" y="375.8" class="st15" width="7" height="7"/>
				<rect x="641.1" y="375.8" class="st15" width="7" height="7"/>
				<rect x="627.1" y="375.8" class="st15" width="7" height="7"/>
				<rect x="613" y="375.8" class="st15" width="7" height="7"/>
				<rect x="599" y="375.8" class="st15" width="7" height="7"/>
				<rect x="725.3" y="389.8" class="st15" width="7" height="7"/>
				<rect x="711.3" y="389.8" class="st15" width="7" height="7"/>
				<rect x="697.2" y="389.8" class="st15" width="7" height="7"/>
				<rect x="683.2" y="389.8" class="st15" width="7" height="7"/>
				<rect x="669.2" y="389.8" class="st15" width="7" height="7"/>
				<rect x="655.2" y="389.8" class="st15" width="7" height="7"/>
				<rect x="641.1" y="389.8" class="st15" width="7" height="7"/>
				<rect x="627.1" y="389.8" class="st15" width="7" height="7"/>
				<rect x="613" y="389.8" class="st15" width="7" height="7"/>
				<rect x="599" y="389.8" class="st15" width="7" height="7"/>
				<rect x="725.3" y="403.8" class="st15" width="7" height="7"/>
				<rect x="711.3" y="403.8" class="st15" width="7" height="7"/>
				<rect x="697.2" y="403.8" class="st15" width="7" height="7"/>
				<rect x="683.2" y="403.8" class="st15" width="7" height="7"/>
				<rect x="669.2" y="403.8" class="st15" width="7" height="7"/>
				<rect x="655.2" y="403.8" class="st15" width="7" height="7"/>
				<rect x="641.1" y="403.8" class="st15" width="7" height="7"/>
				<rect x="627.1" y="403.8" class="st15" width="7" height="7"/>
				<rect x="613" y="403.8" class="st15" width="7" height="7"/>
				<rect x="599" y="403.8" class="st15" width="7" height="7"/>
				<rect x="732.3" y="410.9" class="st15" width="7" height="7"/>
				<rect x="718.3" y="410.9" class="st15" width="7" height="7"/>
				<rect x="704.3" y="410.9" class="st15" width="7" height="7"/>
				<rect x="690.2" y="410.9" class="st15" width="7" height="7"/>
				<rect x="676.2" y="410.9" class="st15" width="7" height="7"/>
				<rect x="662.2" y="410.9" class="st15" width="7" height="7"/>
				<rect x="648.1" y="410.9" class="st15" width="7" height="7"/>
				<rect x="634.1" y="410.9" class="st15" width="7" height="7"/>
				<rect x="620.1" y="410.9" class="st15" width="7" height="7"/>
				<rect x="606" y="410.9" class="st15" width="7" height="7"/>
				<rect x="592" y="410.9" class="st15" width="7" height="7"/>
				<rect x="725.3" y="417.9" class="st15" width="7" height="7"/>
				<rect x="711.3" y="417.9" class="st15" width="7" height="7"/>
				<rect x="697.2" y="417.9" class="st15" width="7" height="7"/>
				<rect x="683.2" y="417.9" class="st15" width="7" height="7"/>
				<rect x="669.2" y="417.9" class="st15" width="7" height="7"/>
				<rect x="655.2" y="417.9" class="st15" width="7" height="7"/>
				<rect x="641.1" y="417.9" class="st15" width="7" height="7"/>
				<rect x="627.1" y="417.9" class="st15" width="7" height="7"/>
				<rect x="613" y="417.9" class="st15" width="7" height="7"/>
				<rect x="599" y="417.9" class="st15" width="7" height="7"/>
				<rect x="732.3" y="424.9" class="st15" width="7" height="7"/>
				<rect x="718.3" y="424.9" class="st15" width="7" height="7"/>
				<rect x="704.3" y="424.9" class="st15" width="7" height="7"/>
				<rect x="690.2" y="424.9" class="st15" width="7" height="7"/>
				<rect x="676.2" y="424.9" class="st15" width="7" height="7"/>
				<rect x="662.2" y="424.9" class="st15" width="7" height="7"/>
				<rect x="648.1" y="424.9" class="st15" width="7" height="7"/>
				<rect x="634.1" y="424.9" class="st15" width="7" height="7"/>
				<rect x="620.1" y="424.9" class="st15" width="7" height="7"/>
				<rect x="606" y="424.9" class="st15" width="7" height="7"/>
				<rect x="592" y="424.9" class="st15" width="7" height="7"/>
				<rect x="725.3" y="431.9" class="st15" width="7" height="7"/>
				<rect x="711.3" y="431.9" class="st15" width="7" height="7"/>
				<rect x="697.2" y="431.9" class="st15" width="7" height="7"/>
				<rect x="683.2" y="431.9" class="st15" width="7" height="7"/>
				<rect x="669.2" y="431.9" class="st15" width="7" height="7"/>
				<rect x="655.2" y="431.9" class="st15" width="7" height="7"/>
				<rect x="641.1" y="431.9" class="st15" width="7" height="7"/>
				<rect x="627.1" y="431.9" class="st15" width="7" height="7"/>
				<rect x="613" y="431.9" class="st15" width="7" height="7"/>
				<rect x="599" y="431.9" class="st15" width="7" height="7"/>
				<path class="st15" d="M725.3,445.9v-7h-7v7h-7v-7h-7v7h-7v-7h-7v7h-7v-7h-7v7h-7v-7h-7v7h-7v-7h-7v7h-7v-7h-7v7h-7v-7h-7v7h-7
					v-7h-7v7h-7v-7h-7V488h147.4v-49.1h-7v7H725.3L725.3,445.9z M718.3,453v7h-7v-7H718.3z M718.3,474h-7v-7h7V474z M613,467h7v7h-7
					V467z M627.1,467h7v7h-7V467z M641.1,467h7v7h-7V467z M655.2,467h7v7h-7V467z M669.2,467h7v7h-7V467z M683.2,467h7v7h-7V467z
					 M697.3,467h7v7h-7V467z M704.3,452.9v7h-7v-7H704.3z M690.3,452.9v7h-7v-7H690.3z M676.2,452.9v7h-7v-7H676.2z M662.2,452.9v7
					h-7v-7H662.2z M648.1,452.9v7h-7v-7H648.1z M634.1,452.9v7h-7v-7H634.1z M620.1,452.9v7h-7v-7H620.1z M599,452.9h7v7h-7V452.9z
					 M599,467h7v7h-7V467z M732.3,474h-7v-7h7V474z M732.3,460h-7v-7h7V460z"/>
			</g>
			<rect x="585" y="481" width="7" height="7"/>
			<rect x="788.5" y="488" width="7" height="7"/>
			<rect x="781.5" y="488" width="7" height="7"/>
			<rect x="774.5" y="488" width="7" height="7"/>
			<rect x="767.4" y="488" width="7" height="7"/>
			<rect x="760.4" y="488" width="7" height="7"/>
			<rect x="753.4" y="488" width="7" height="7"/>
			<rect x="746.4" y="488" width="7" height="7"/>
			<rect x="739.4" y="488" width="7" height="7"/>
			<rect x="732.3" y="488" width="7" height="7"/>
			<rect x="725.3" y="488" width="7" height="7"/>
			<rect x="718.3" y="488" width="7" height="7"/>
			<rect x="711.3" y="488" width="7" height="7"/>
			<rect x="704.3" y="488" width="7" height="7"/>
			<rect x="697.2" y="488" width="7" height="7"/>
			<rect x="690.2" y="488" width="7" height="7"/>
			<rect x="683.2" y="488" width="7" height="7"/>
			<rect x="676.2" y="488" width="7" height="7"/>
			<rect x="669.2" y="488" width="7" height="7"/>
			<rect x="662.2" y="488" width="7" height="7"/>
			<rect x="655.2" y="488" width="7" height="7"/>
			<rect x="648.1" y="488" width="7" height="7"/>
			<rect x="641.1" y="488" width="7" height="7"/>
			<rect x="634.1" y="488" width="7" height="7"/>
			<rect x="627.1" y="488" width="7" height="7"/>
			<rect x="620.1" y="488" width="7" height="7"/>
			<rect x="613" y="488" width="7" height="7"/>
			<rect x="606" y="488" width="7" height="7"/>
			<rect x="599" y="488" width="7" height="7"/>
			<rect x="592" y="488" width="7" height="7"/>
			<rect x="585" y="488" width="7" height="7"/>
			<rect x="578" y="488" width="7" height="7"/>
			<rect x="570.9" y="488" width="7" height="7"/>
			<rect x="563.9" y="488" width="7" height="7"/>
			<rect x="556.9" y="488" width="7" height="7"/>
			<rect x="549.9" y="488" width="7" height="7"/>
			<rect x="542.9" y="488" width="7" height="7"/>
			<rect x="535.8" y="488" width="7" height="7"/>
			<rect x="528.8" y="488" width="7" height="7"/>
			<rect x="521.8" y="488" width="7" height="7"/>
			<rect x="514.8" y="488" width="7" height="7"/>
			<rect x="507.8" y="488" width="7" height="7"/>
			<rect x="500.8" y="488" width="7" height="7"/>
			<rect x="493.8" y="488" width="7" height="7"/>
			<rect x="486.7" y="488" width="7" height="7"/>
			<rect x="788.5" y="495.1" width="7" height="7"/>
			<rect x="486.7" y="495.1" width="7" height="7"/>
			<rect x="788.5" y="502.1" width="7" height="7"/>
			<rect x="486.7" y="502.1" width="7" height="7"/>
			<rect x="788.5" y="509.1" width="7" height="7"/>
			<rect x="486.7" y="509.1" width="7" height="7"/>
			<rect x="788.5" y="516.1" width="7" height="7"/>
			<rect x="486.7" y="516.1" width="7" height="7"/>
			<rect x="802.5" y="523.1" width="7" height="7"/>
			<rect x="795.5" y="523.1" width="7" height="7"/>
			<rect x="788.5" y="523.1" width="7" height="7"/>
			<rect x="781.5" y="523.1" width="7" height="7"/>
			<rect x="774.5" y="523.1" width="7" height="7"/>
			<rect x="767.4" y="523.1" width="7" height="7"/>
			<rect x="760.4" y="523.1" width="7" height="7"/>
			<rect x="753.4" y="523.1" width="7" height="7"/>
			<rect x="746.4" y="523.1" width="7" height="7"/>
			<rect x="739.4" y="523.1" width="7" height="7"/>
			<rect x="732.3" y="523.1" width="7" height="7"/>
			<rect x="725.3" y="523.1" width="7" height="7"/>
			<rect x="718.3" y="523.1" width="7" height="7"/>
			<rect x="711.3" y="523.1" width="7" height="7"/>
			<rect x="704.3" y="523.1" width="7" height="7"/>
			<rect x="697.2" y="523.1" width="7" height="7"/>
			<rect x="690.2" y="523.1" width="7" height="7"/>
			<rect x="683.2" y="523.1" width="7" height="7"/>
			<rect x="676.2" y="523.1" width="7" height="7"/>
			<rect x="669.2" y="523.1" width="7" height="7"/>
			<rect x="662.2" y="523.1" width="7" height="7"/>
			<rect x="655.2" y="523.1" width="7" height="7"/>
			<rect x="648.1" y="523.1" width="7" height="7"/>
			<rect x="641.1" y="523.1" width="7" height="7"/>
			<rect x="634.1" y="523.1" width="7" height="7"/>
			<rect x="627.1" y="523.1" width="7" height="7"/>
			<rect x="620.1" y="523.1" width="7" height="7"/>
			<rect x="613" y="523.1" width="7" height="7"/>
			<rect x="606" y="523.1" width="7" height="7"/>
			<rect x="599" y="523.1" width="7" height="7"/>
			<rect x="592" y="523.1" width="7" height="7"/>
			<rect x="585" y="523.1" width="7" height="7"/>
			<rect x="578" y="523.1" width="7" height="7"/>
			<rect x="570.9" y="523.1" width="7" height="7"/>
			<rect x="563.9" y="523.1" width="7" height="7"/>
			<rect x="556.9" y="523.1" width="7" height="7"/>
			<rect x="549.9" y="523.1" width="7" height="7"/>
			<rect x="542.9" y="523.1" width="7" height="7"/>
			<rect x="535.8" y="523.1" width="7" height="7"/>
			<rect x="528.8" y="523.1" width="7" height="7"/>
			<rect x="521.8" y="523.1" width="7" height="7"/>
			<rect x="514.8" y="523.1" width="7" height="7"/>
			<rect x="507.8" y="523.1" width="7" height="7"/>
			<rect x="500.8" y="523.1" width="7" height="7"/>
			<rect x="493.8" y="523.1" width="7" height="7"/>
			<rect x="486.7" y="523.1" width="7" height="7"/>
			<rect x="802.5" y="530.2" width="7" height="7"/>
			<rect x="500.8" y="530.2" width="7" height="7"/>
			<rect x="802.5" y="537.2" width="7" height="7"/>
			<rect x="500.8" y="537.2" width="7" height="7"/>
			<rect x="809.5" y="544.2" width="7" height="7"/>
			<rect x="500.8" y="544.2" width="7" height="7"/>
			<rect x="809.5" y="551.2" width="7" height="7"/>
			<rect x="500.8" y="551.2" width="7" height="7"/>
			<rect x="809.5" y="558.2" width="7" height="7"/>
			<rect x="500.8" y="558.2" width="7" height="7"/>
			<rect x="809.5" y="565.2" width="7" height="7"/>
			<rect x="500.8" y="565.2" width="7" height="7"/>
			<rect x="802.5" y="572.3" width="7" height="7"/>
			<rect x="500.8" y="572.3" width="7" height="7"/>
			<rect x="802.5" y="579.3" width="7" height="7"/>
			<rect x="500.8" y="579.3" width="7" height="7"/>
			<rect x="802.5" y="586.3" width="7" height="7"/>
			<g>
				<polygon class="st2" points="599,333.7 606,333.7 613,333.7 620.1,333.7 620.1,326.6 627.1,326.6 634.1,326.6 641.1,326.6 
					648.1,326.6 655.2,326.6 662.2,326.6 669.2,326.6 676.2,326.6 683.2,326.6 690.2,326.6 697.2,326.6 704.3,326.6 711.3,326.6 
					711.3,333.7 718.3,333.7 725.3,333.7 732.3,333.7 732.3,340.7 739.4,340.7 739.4,333.7 739.4,326.6 732.3,326.6 732.3,319.6 
					725.3,319.6 718.3,319.6 711.3,319.6 704.3,319.6 704.3,312.6 697.2,312.6 690.2,312.6 683.2,312.6 676.2,312.6 669.2,312.6 
					662.2,312.6 655.2,312.6 648.1,312.6 641.1,312.6 634.1,312.6 627.1,312.6 627.1,319.6 620.1,319.6 613,319.6 606,319.6 
					599,319.6 599,326.6 592,326.6 592,333.7 592,340.7 599,340.7 				"/>
				<polygon class="st2" points="788.5,523.1 788.5,516.1 788.5,509.1 788.5,502.1 788.5,495.1 781.5,495.1 774.5,495.1 
					774.5,502.1 774.5,509.1 774.5,516.1 774.5,523.1 781.5,523.1 				"/>
				<polygon class="st2" points="767.4,516.1 767.4,509.1 767.4,502.1 767.4,495.1 760.4,495.1 760.4,502.1 760.4,509.1 
					760.4,516.1 760.4,523.1 767.4,523.1 				"/>
				<path class="st2" d="M753.4,516.1v-21H493.8v28.1h259.7L753.4,516.1L753.4,516.1z M500.8,516.1v-14h14v7h-7v7H500.8z
					 M521.8,516.1v-14h7v14H521.8z M535.8,516.1v-14h7v14H535.8z"/>
				<polygon class="st2" points="739.4,537.2 739.4,544.2 739.4,551.2 739.4,558.2 739.4,565.2 739.4,572.3 739.4,579.3 
					739.4,586.3 739.4,593.3 746.4,593.3 746.4,586.3 746.4,579.3 746.4,572.3 746.4,565.2 746.4,558.2 746.4,551.2 746.4,544.2 
					746.4,537.2 746.4,530.2 739.4,530.2 				"/>
				<polygon class="st2" points="528.8,537.2 528.8,544.2 528.8,551.2 528.8,558.2 528.8,565.2 528.8,572.3 528.8,579.3 
					528.8,586.3 528.8,593.3 535.8,593.3 535.8,586.3 535.8,579.3 535.8,572.3 535.8,565.2 535.8,558.2 535.8,551.2 535.8,544.2 
					535.8,537.2 535.8,530.2 528.8,530.2 				"/>
				<polygon class="st2" points="514.8,537.2 514.8,544.2 514.8,551.2 514.8,558.2 514.8,565.2 514.8,572.3 514.8,579.3 
					514.8,586.3 514.8,593.3 521.8,593.3 521.8,586.3 521.8,579.3 521.8,572.3 521.8,565.2 521.8,558.2 521.8,551.2 521.8,544.2 
					521.8,537.2 521.8,530.2 514.8,530.2 				"/>
				<polygon class="st2" points="802.5,544.2 802.5,537.2 802.5,530.2 795.5,530.2 788.5,530.2 781.5,530.2 774.5,530.2 
					767.4,530.2 760.4,530.2 753.4,530.2 753.4,537.2 753.4,544.2 753.4,551.2 753.4,558.2 753.4,565.2 753.4,572.3 753.4,579.3 
					753.4,586.3 753.4,593.3 760.4,593.3 767.4,593.3 774.5,593.3 781.5,593.3 788.5,593.3 795.5,593.3 802.5,593.3 802.5,586.3 
					802.5,579.3 802.5,572.3 809.5,572.3 809.5,565.2 809.5,558.2 809.5,551.2 809.5,544.2 				"/>
				<polygon class="st2" points="718.3,551.2 711.3,551.2 711.3,558.2 711.3,565.2 711.3,572.3 718.3,572.3 725.3,572.3 
					732.3,572.3 732.3,565.2 732.3,558.2 732.3,551.2 725.3,551.2 				"/>
			</g>
			<g>
				<polygon class="st10" points="704.3,326.6 697.2,326.6 690.2,326.6 683.2,326.6 676.2,326.6 669.2,326.6 662.2,326.6 
					655.2,326.6 648.1,326.6 641.1,326.6 634.1,326.6 627.1,326.6 620.1,326.6 620.1,333.7 627.1,333.7 634.1,333.7 641.1,333.7 
					648.1,333.7 655.2,333.7 662.2,333.7 669.2,333.7 676.2,333.7 683.2,333.7 690.2,333.7 697.2,333.7 704.3,333.7 711.3,333.7 
					711.3,326.6 				"/>
				<polygon class="st10" points="725.3,333.7 718.3,333.7 711.3,333.7 711.3,340.7 718.3,340.7 725.3,340.7 732.3,340.7 
					732.3,333.7 				"/>
				<polygon class="st10" points="606,333.7 599,333.7 599,340.7 606,340.7 613,340.7 620.1,340.7 620.1,333.7 613,333.7 				"/>
				<rect x="732.3" y="340.7" class="st10" width="7" height="7"/>
				<rect x="592" y="340.7" class="st10" width="7" height="7"/>
				<polygon class="st10" points="767.4,495.1 767.4,502.1 767.4,509.1 767.4,516.1 767.4,523.1 774.5,523.1 774.5,516.1 
					774.5,509.1 774.5,502.1 774.5,495.1 				"/>
				<polygon class="st10" points="753.4,502.1 753.4,509.1 753.4,516.1 753.4,523.1 760.4,523.1 760.4,516.1 760.4,509.1 
					760.4,502.1 760.4,495.1 753.4,495.1 				"/>
				<polygon class="st10" points="521.8,509.1 521.8,516.1 528.8,516.1 528.8,509.1 528.8,502.1 521.8,502.1 				"/>
				<polygon class="st10" points="500.8,502.1 500.8,509.1 500.8,516.1 507.8,516.1 507.8,509.1 514.8,509.1 514.8,502.1 
					507.8,502.1 				"/>
				<polygon class="st10" points="542.9,509.1 542.9,502.1 535.8,502.1 535.8,509.1 535.8,516.1 542.9,516.1 				"/>
				<polygon class="st10" points="746.4,537.2 746.4,544.2 746.4,551.2 746.4,558.2 746.4,565.2 746.4,572.3 746.4,579.3 
					746.4,586.3 746.4,593.3 753.4,593.3 753.4,586.3 753.4,579.3 753.4,572.3 753.4,565.2 753.4,558.2 753.4,551.2 753.4,544.2 
					753.4,537.2 753.4,530.2 746.4,530.2 				"/>
				<path class="st10" d="M725.3,530.2H535.8v63.2h203.5v-63.2H725.3z M732.3,558.2v14h-21v-21h21V558.2L732.3,558.2z"/>
				<polygon class="st10" points="521.8,537.2 521.8,544.2 521.8,551.2 521.8,558.2 521.8,565.2 521.8,572.3 521.8,579.3 
					521.8,586.3 521.8,593.3 528.8,593.3 528.8,586.3 528.8,579.3 528.8,572.3 528.8,565.2 528.8,558.2 528.8,551.2 528.8,544.2 
					528.8,537.2 528.8,530.2 521.8,530.2 				"/>
				<polygon class="st10" points="507.8,537.2 507.8,544.2 507.8,551.2 507.8,558.2 507.8,565.2 507.8,572.3 507.8,579.3 
					507.8,586.3 507.8,593.3 514.8,593.3 514.8,586.3 514.8,579.3 514.8,572.3 514.8,565.2 514.8,558.2 514.8,551.2 514.8,544.2 
					514.8,537.2 514.8,530.2 507.8,530.2 				"/>
			</g>
			<rect x="500.8" y="586.3" width="7" height="7"/>
			<rect x="802.5" y="593.3" width="7" height="7"/>
			<rect x="795.5" y="593.3" width="7" height="7"/>
			<rect x="788.5" y="593.3" width="7" height="7"/>
			<rect x="781.5" y="593.3" width="7" height="7"/>
			<rect x="774.5" y="593.3" width="7" height="7"/>
			<rect x="767.4" y="593.3" width="7" height="7"/>
			<rect x="760.4" y="593.3" width="7" height="7"/>
			<rect x="753.4" y="593.3" width="7" height="7"/>
			<rect x="746.4" y="593.3" width="7" height="7"/>
			<rect x="739.4" y="593.3" width="7" height="7"/>
			<rect x="732.3" y="593.3" width="7" height="7"/>
			<rect x="725.3" y="593.3" width="7" height="7"/>
			<rect x="718.3" y="593.3" width="7" height="7"/>
			<rect x="711.3" y="593.3" width="7" height="7"/>
			<rect x="704.3" y="593.3" width="7" height="7"/>
			<rect x="697.2" y="593.3" width="7" height="7"/>
			<rect x="690.2" y="593.3" width="7" height="7"/>
			<rect x="683.2" y="593.3" width="7" height="7"/>
			<rect x="676.2" y="593.3" width="7" height="7"/>
			<rect x="669.2" y="593.3" width="7" height="7"/>
			<rect x="662.2" y="593.3" width="7" height="7"/>
			<rect x="655.2" y="593.3" width="7" height="7"/>
			<rect x="648.1" y="593.3" width="7" height="7"/>
			<rect x="641.1" y="593.3" width="7" height="7"/>
			<rect x="634.1" y="593.3" width="7" height="7"/>
			<rect x="627.1" y="593.3" width="7" height="7"/>
			<rect x="620.1" y="593.3" width="7" height="7"/>
			<rect x="613" y="593.3" width="7" height="7"/>
			<rect x="606" y="593.3" width="7" height="7"/>
			<rect x="599" y="593.3" width="7" height="7"/>
			<rect x="592" y="593.3" width="7" height="7"/>
			<rect x="585" y="593.3" width="7" height="7"/>
			<rect x="578" y="593.3" width="7" height="7"/>
			<rect x="570.9" y="593.3" width="7" height="7"/>
			<rect x="563.9" y="593.3" width="7" height="7"/>
			<rect x="556.9" y="593.3" width="7" height="7"/>
			<rect x="549.9" y="593.3" width="7" height="7"/>
			<rect x="542.9" y="593.3" width="7" height="7"/>
			<rect x="535.8" y="593.3" width="7" height="7"/>
			<rect x="528.8" y="593.3" width="7" height="7"/>
			<rect x="521.8" y="593.3" width="7" height="7"/>
			<rect x="514.8" y="593.3" width="7" height="7"/>
			<rect x="507.8" y="593.3" width="7" height="7"/>
			<rect x="500.8" y="593.3" width="7" height="7"/>
			<path class="st9" d="M672.8,439.1H687v-14.2h-14.2V439.1z M658.6,394.1v30.8h-14.2v14.2h14.2v-14.2h14.2v-30.8H658.6z
				 M630.2,424.9h14.2v-56.8h-14.2V424.9z M687,424.9h14.2v-56.8H687V424.9z"/>
		</g>
		<rect x="93.5" y="329.8" class="st1" width="240" height="138.2"/>
		<rect x="103.5" y="340.7" class="st4" width="65" height="117.4"/>
		<rect x="178.5" y="340.7" class="st4" width="141.8" height="10.5"/>
		<rect x="178.5" y="358.6" class="st4" width="141.8" height="10.5"/>
		<rect x="178.5" y="376.6" class="st4" width="141.8" height="10.5"/>
		<rect x="178.5" y="394.5" class="st4" width="141.8" height="10.5"/>
		<rect x="178.5" y="412.4" class="st4" width="141.8" height="10.5"/>
		<rect x="178.5" y="430.4" class="st4" width="141.8" height="10.5"/>
		<rect x="178.5" y="448.3" class="st4" width="141.8" height="10.5"/>
		<g class="st8">
			<path class="st9" d="M95.1,309.8v-4.9H80.5v-24.4H100v29.3H95.1z M95.1,285.4h-9.8v14.6h9.8V285.4z"/>
			<path class="st9" d="M104.9,304.9v-24.4h4.9v19.5h9.8v-19.5h4.9v24.4H104.9z"/>
			<path class="st9" d="M129.2,304.9v-24.4h19.5v4.9h-14.6v4.9h9.8v4.9h-9.8v4.9h14.6v4.9H129.2z"/>
			<path class="st9" d="M153.6,304.9v-4.9h14.6v-4.9h-14.6v-14.6h19.5v4.9h-14.6v4.9h14.6v14.6H153.6z"/>
			<path class="st9" d="M192.6,285.4v19.5h-4.9v-19.5H178v-4.9h24.4v4.9H192.6z"/>
			<path class="st9" d="M221.9,290.3h9.8v4.9h-9.8v4.9h9.8v-4.9h4.9v9.7H217v-24.4h19.5v9.8h-4.9v-4.9h-9.8V290.3z"/>
			<path class="st9" d="M241.4,304.9v-24.4h4.9v19.5h9.8v-19.5h4.9v24.4H241.4z"/>
			<path class="st9" d="M265.8,304.9v-4.9h4.9v-14.6h-4.9v-4.9h14.6v4.9h-4.9v14.6h4.9v4.9H265.8z"/>
			<path class="st9" d="M285.2,304.9v-24.4h4.9v19.5h14.6v4.9H285.2z"/>
			<path class="st9" d="M324.3,300.1v4.9h-14.6v-24.4h14.6v4.9h4.9v14.6H324.3z M324.3,285.4h-9.8v14.6h9.8V285.4z"/>
			<path class="st9" d="M334,304.9v-24.4h19.5v4.9h-14.6v4.9h9.8v4.9h-9.8v4.9h14.6v4.9H334z"/>
			<path class="st9" d="M373,304.9v-9.7h-9.8v9.7h-4.9v-24.4h19.5v9.8H373v4.9h4.9v9.7H373z M373,285.4h-9.8v4.9h9.8V285.4z"/>
		</g>
	</g>
</g>
</svg>
